<?xml version="1.0" encoding="UTF-8"?>
<!DOCTYPE svg PUBLIC "-//W3C//DTD SVG 1.1//EN" "http://www.w3.org/Graphics/SVG/1.1/DTD/svg11.dtd">
<!-- Creator: CorelDRAW -->
<svg xmlns="http://www.w3.org/2000/svg" xml:space="preserve" width="162.56mm" height="216.747mm" style="shape-rendering:geometricPrecision; text-rendering:geometricPrecision; image-rendering:optimizeQuality; fill-rule:evenodd; clip-rule:evenodd"
viewBox="0 0 162.56 216.747"
 xmlns:xlink="http://www.w3.org/1999/xlink">
 <defs>
  <style type="text/css">
   <![CDATA[
    .fil0 {fill:#FDB515;fill-rule:nonzero}
   ]]>
  </style>
 </defs>
 <g id="Слой_x0020_1">
  <metadata id="CorelCorpID_0Corel-Layer"/>
  <g id="_114237816">
   <g>
    <path id="_114239952" class="fil0" d="M-3.6122 -0.0002l3.6122 -3.6122 162.56 0 0 7.2244 -162.56 0 -3.6122 -3.6122zm0 0l0 -3.6122 3.6122 0 -3.6122 3.6122zm3.6122 220.359l-3.6122 -3.6122 0 -216.747 7.2244 0 0 216.747 -3.6122 3.6122zm0 0l-3.6122 0 0 -3.6122 3.6122 3.6122zm166.172 -3.6122l-3.6122 3.6122 -162.56 0 0 -7.2244 162.56 0 3.6122 3.6122zm0 0l0 3.6122 -3.6122 0 3.6122 -3.6122zm-3.6122 -220.359l3.6122 3.6122 0 216.747 -7.2244 0 0 -216.747 3.6122 -3.6122zm0 0l3.6122 0 0 3.6122 -3.6122 -3.6122z"/>
   </g>
   <g>
    <path class="fil0" d="M14.4501 54.1868l3.6122 -3.6122 126.435 0 0 7.2244 -126.435 0 -3.6122 -3.6122zm3.6122 3.6122l-3.6122 0 0 -3.6122 3.6122 3.6122zm0 -43.3491l3.6122 3.6122 0 36.1247 -7.2244 0 0 -36.1247 3.6122 -3.6122zm-3.6122 3.6122l0 -3.6122 3.6122 0 -3.6122 3.6122zm133.66 0l-3.6122 3.6122 -126.435 0 0 -7.2244 126.435 0 3.6122 3.6122zm-3.6122 -3.6122l3.6122 0 0 3.6122 -3.6122 -3.6122zm0 43.3491l-3.6122 -3.6122 0 -36.1247 7.2244 0 0 36.1247 -3.6122 3.6122zm3.6122 -3.6122l0 3.6122 -3.6122 0 3.6122 -3.6122z"/>
   </g>
   <g>
    <path class="fil0" d="M14.4501 90.3115l3.6122 -3.6122 18.0624 0 0 7.2244 -18.0624 0 -3.6122 -3.6122zm3.6122 3.6122l-3.6122 0 0 -3.6122 3.6122 3.6122zm0 -25.2868l3.6122 3.6122 0 18.0624 -7.2244 0 0 -18.0624 3.6122 -3.6122zm-3.6122 3.6122l0 -3.6122 3.6122 0 -3.6122 3.6122zm25.2868 0l-3.6122 3.6122 -18.0624 0 0 -7.2244 18.0624 0 3.6122 3.6122zm-3.6122 -3.6122l3.6122 0 0 3.6122 -3.6122 -3.6122zm0 25.2868l-3.6122 -3.6122 0 -18.0624 7.2244 0 0 18.0624 -3.6122 3.6122zm3.6122 -3.6122l0 3.6122 -3.6122 0 3.6122 -3.6122z"/>
   </g>
   <g>
    <path class="fil0" d="M50.5738 90.3115l3.6122 -3.6122 18.0623 0 0 7.2244 -18.0623 0 -3.6122 -3.6122zm3.6122 3.6122l-3.6122 0 0 -3.6122 3.6122 3.6122zm0 -25.2868l3.6122 3.6122 0 18.0624 -7.2244 0 0 -18.0624 3.6122 -3.6122zm-3.6122 3.6122l0 -3.6122 3.6122 0 -3.6122 3.6122zm25.2867 0l-3.6122 3.6122 -18.0623 0 0 -7.2244 18.0623 0 3.6122 3.6122zm-3.6122 -3.6122l3.6122 0 0 3.6122 -3.6122 -3.6122zm0 25.2868l-3.6122 -3.6122 0 -18.0624 7.2244 0 0 18.0624 -3.6122 3.6122zm3.6122 -3.6122l0 3.6122 -3.6122 0 3.6122 -3.6122z"/>
   </g>
   <g>
    <path class="fil0" d="M86.6984 90.3115l3.6122 -3.6122 18.0624 0 0 7.2244 -18.0624 0 -3.6122 -3.6122zm3.6122 3.6122l-3.6122 0 0 -3.6122 3.6122 3.6122zm0 -25.2868l3.6122 3.6122 0 18.0624 -7.2244 0 0 -18.0624 3.6122 -3.6122zm-3.6122 3.6122l0 -3.6122 3.6122 0 -3.6122 3.6122zm25.2868 0l-3.6122 3.6122 -18.0624 0 0 -7.2244 18.0624 0 3.6122 3.6122zm-3.6122 -3.6122l3.6122 0 0 3.6122 -3.6122 -3.6122zm0 25.2868l-3.6122 -3.6122 0 -18.0624 7.2244 0 0 18.0624 -3.6122 3.6122zm3.6122 -3.6122l0 3.6122 -3.6122 0 3.6122 -3.6122z"/>
   </g>
   <g>
    <path class="fil0" d="M86.6984 198.685l3.6122 -3.6122 18.0624 0 0 7.2244 -18.0624 0 -3.6122 -3.6122zm3.6122 3.6122l-3.6122 0 0 -3.6122 3.6122 3.6122zm0 -25.2868l3.6122 3.6122 0 18.0624 -7.2244 0 0 -18.0624 3.6122 -3.6122zm-3.6122 3.6122l0 -3.6122 3.6122 0 -3.6122 3.6122zm25.2868 0l-3.6122 3.6122 -18.0624 0 0 -7.2244 18.0624 0 3.6122 3.6122zm-3.6122 -3.6122l3.6122 0 0 3.6122 -3.6122 -3.6122zm0 25.2868l-3.6122 -3.6122 0 -18.0624 7.2244 0 0 18.0624 -3.6122 3.6122zm3.6122 -3.6122l0 3.6122 -3.6122 0 3.6122 -3.6122z"/>
   </g>
   <g>
    <path class="fil0" d="M122.823 90.3115l3.6122 -3.6122 18.0623 0 0 7.2244 -18.0623 0 -3.6122 -3.6122zm3.6122 3.6122l-3.6122 0 0 -3.6122 3.6122 3.6122zm0 -25.2868l3.6122 3.6122 0 18.0624 -7.2244 0 0 -18.0624 3.6122 -3.6122zm-3.6122 3.6122l0 -3.6122 3.6122 0 -3.6122 3.6122zm25.2867 0l-3.6122 3.6122 -18.0623 0 0 -7.2244 18.0623 0 3.6122 3.6122zm-3.6122 -3.6122l3.6122 0 0 3.6122 -3.6122 -3.6122zm0 25.2868l-3.6122 -3.6122 0 -18.0624 7.2244 0 0 18.0624 -3.6122 3.6122zm3.6122 -3.6122l0 3.6122 -3.6122 0 3.6122 -3.6122z"/>
   </g>
   <g>
    <path class="fil0" d="M14.4501 126.436l3.6122 -3.6122 18.0624 0 0 7.2244 -18.0624 0 -3.6122 -3.6122zm3.6122 3.6122l-3.6122 0 0 -3.6122 3.6122 3.6122zm0 -25.2868l3.6122 3.6122 0 18.0624 -7.2244 0 0 -18.0624 3.6122 -3.6122zm-3.6122 3.6122l0 -3.6122 3.6122 0 -3.6122 3.6122zm25.2868 0l-3.6122 3.6122 -18.0624 0 0 -7.2244 18.0624 0 3.6122 3.6122zm-3.6122 -3.6122l3.6122 0 0 3.6122 -3.6122 -3.6122zm0 25.2868l-3.6122 -3.6122 0 -18.0624 7.2244 0 0 18.0624 -3.6122 3.6122zm3.6122 -3.6122l0 3.6122 -3.6122 0 3.6122 -3.6122z"/>
   </g>
   <g>
    <path class="fil0" d="M50.5738 126.436l3.6122 -3.6122 18.0623 0 0 7.2244 -18.0623 0 -3.6122 -3.6122zm3.6122 3.6122l-3.6122 0 0 -3.6122 3.6122 3.6122zm0 -25.2868l3.6122 3.6122 0 18.0624 -7.2244 0 0 -18.0624 3.6122 -3.6122zm-3.6122 3.6122l0 -3.6122 3.6122 0 -3.6122 3.6122zm25.2867 0l-3.6122 3.6122 -18.0623 0 0 -7.2244 18.0623 0 3.6122 3.6122zm-3.6122 -3.6122l3.6122 0 0 3.6122 -3.6122 -3.6122zm0 25.2868l-3.6122 -3.6122 0 -18.0624 7.2244 0 0 18.0624 -3.6122 3.6122zm3.6122 -3.6122l0 3.6122 -3.6122 0 3.6122 -3.6122z"/>
   </g>
   <g>
    <path class="fil0" d="M86.6984 126.436l3.6122 -3.6122 18.0624 0 0 7.2244 -18.0624 0 -3.6122 -3.6122zm3.6122 3.6122l-3.6122 0 0 -3.6122 3.6122 3.6122zm0 -25.2868l3.6122 3.6122 0 18.0624 -7.2244 0 0 -18.0624 3.6122 -3.6122zm-3.6122 3.6122l0 -3.6122 3.6122 0 -3.6122 3.6122zm25.2868 0l-3.6122 3.6122 -18.0624 0 0 -7.2244 18.0624 0 3.6122 3.6122zm-3.6122 -3.6122l3.6122 0 0 3.6122 -3.6122 -3.6122zm0 25.2868l-3.6122 -3.6122 0 -18.0624 7.2244 0 0 18.0624 -3.6122 3.6122zm3.6122 -3.6122l0 3.6122 -3.6122 0 3.6122 -3.6122z"/>
   </g>
   <g>
    <path class="fil0" d="M14.4501 162.561l3.6122 -3.6122 18.0624 0 0 7.2244 -18.0624 0 -3.6122 -3.6122zm3.6122 3.6122l-3.6122 0 0 -3.6122 3.6122 3.6122zm0 -25.2867l3.6122 3.6122 0 18.0623 -7.2244 0 0 -18.0623 3.6122 -3.6122zm-3.6122 3.6122l0 -3.6122 3.6122 0 -3.6122 3.6122zm25.2868 0l-3.6122 3.6122 -18.0624 0 0 -7.2244 18.0624 0 3.6122 3.6122zm-3.6122 -3.6122l3.6122 0 0 3.6122 -3.6122 -3.6122zm0 25.2867l-3.6122 -3.6122 0 -18.0623 7.2244 0 0 18.0623 -3.6122 3.6122zm3.6122 -3.6122l0 3.6122 -3.6122 0 3.6122 -3.6122z"/>
   </g>
   <g>
    <path class="fil0" d="M50.5738 162.561l3.6122 -3.6122 18.0623 0 0 7.2244 -18.0623 0 -3.6122 -3.6122zm3.6122 3.6122l-3.6122 0 0 -3.6122 3.6122 3.6122zm0 -25.2867l3.6122 3.6122 0 18.0623 -7.2244 0 0 -18.0623 3.6122 -3.6122zm-3.6122 3.6122l0 -3.6122 3.6122 0 -3.6122 3.6122zm25.2867 0l-3.6122 3.6122 -18.0623 0 0 -7.2244 18.0623 0 3.6122 3.6122zm-3.6122 -3.6122l3.6122 0 0 3.6122 -3.6122 -3.6122zm0 25.2867l-3.6122 -3.6122 0 -18.0623 7.2244 0 0 18.0623 -3.6122 3.6122zm3.6122 -3.6122l0 3.6122 -3.6122 0 3.6122 -3.6122z"/>
   </g>
   <g>
    <path class="fil0" d="M86.6984 162.561l3.6122 -3.6122 18.0624 0 0 7.2244 -18.0624 0 -3.6122 -3.6122zm3.6122 3.6122l-3.6122 0 0 -3.6122 3.6122 3.6122zm0 -25.2867l3.6122 3.6122 0 18.0623 -7.2244 0 0 -18.0623 3.6122 -3.6122zm-3.6122 3.6122l0 -3.6122 3.6122 0 -3.6122 3.6122zm25.2868 0l-3.6122 3.6122 -18.0624 0 0 -7.2244 18.0624 0 3.6122 3.6122zm-3.6122 -3.6122l3.6122 0 0 3.6122 -3.6122 -3.6122zm0 25.2867l-3.6122 -3.6122 0 -18.0623 7.2244 0 0 18.0623 -3.6122 3.6122zm3.6122 -3.6122l0 3.6122 -3.6122 0 3.6122 -3.6122z"/>
   </g>
   <g>
    <path class="fil0" d="M122.823 126.436l3.6122 -3.6122 18.0623 0 0 7.2244 -18.0623 0 -3.6122 -3.6122zm3.6122 3.6122l-3.6122 0 0 -3.6122 3.6122 3.6122zm0 -25.2868l3.6122 3.6122 0 18.0624 -7.2244 0 0 -18.0624 3.6122 -3.6122zm-3.6122 3.6122l0 -3.6122 3.6122 0 -3.6122 3.6122zm25.2867 0l-3.6122 3.6122 -18.0623 0 0 -7.2244 18.0623 0 3.6122 3.6122zm-3.6122 -3.6122l3.6122 0 0 3.6122 -3.6122 -3.6122zm0 25.2868l-3.6122 -3.6122 0 -18.0624 7.2244 0 0 18.0624 -3.6122 3.6122zm3.6122 -3.6122l0 3.6122 -3.6122 0 3.6122 -3.6122z"/>
   </g>
   <g>
    <path class="fil0" d="M122.823 198.685l3.6122 -3.6122 18.0623 0 0 7.2244 -18.0623 0 -3.6122 -3.6122zm3.6122 3.6122l-3.6122 0 0 -3.6122 3.6122 3.6122zm0 -61.4104l3.6122 3.6122 0 54.186 -7.2244 0 0 -54.186 3.6122 -3.6122zm-3.6122 3.6122l0 -3.6122 3.6122 0 -3.6122 3.6122zm25.2867 0l-3.6122 3.6122 -18.0623 0 0 -7.2244 18.0623 0 3.6122 3.6122zm-3.6122 -3.6122l3.6122 0 0 3.6122 -3.6122 -3.6122zm0 61.4104l-3.6122 -3.6122 0 -54.186 7.2244 0 0 54.186 -3.6122 3.6122zm3.6122 -3.6122l0 3.6122 -3.6122 0 3.6122 -3.6122z"/>
   </g>
   <g>
    <path class="fil0" d="M18.0623 177.01l3.6122 3.6122 0 18.0624 -7.2244 0 0 -18.0624 3.6122 -3.6122zm-3.6122 3.6122l0 -3.6122 3.6122 0 -3.6122 3.6122zm61.4104 0l-3.6122 3.6122 -54.186 0 0 -7.2244 54.186 0 3.6122 3.6122zm-3.6122 -3.6122l3.6122 0 0 3.6122 -3.6122 -3.6122zm0 25.2868l-3.6122 -3.6122 0 -18.0624 7.2244 0 0 18.0624 -3.6122 3.6122zm3.6122 -3.6122l0 3.6122 -3.6122 0 3.6122 -3.6122zm-61.4104 0l3.6122 -3.6122 54.186 0 0 7.2244 -54.186 0 -3.6122 -3.6122zm3.6122 3.6122l-3.6122 0 0 -3.6122 3.6122 3.6122z"/>
   </g>
  </g>
 </g>
</svg>
