<?xml version="1.0" encoding="utf-8"?>
<!-- Generator: Adobe Illustrator 17.1.0, SVG Export Plug-In . SVG Version: 6.00 Build 0)  -->
<!DOCTYPE svg PUBLIC "-//W3C//DTD SVG 1.1//EN" "http://www.w3.org/Graphics/SVG/1.1/DTD/svg11.dtd">
<svg version="1.1" id="Layer_1" xmlns="http://www.w3.org/2000/svg" xmlns:xlink="http://www.w3.org/1999/xlink" x="0px" y="0px"
	 viewBox="0 0 42 214" enable-background="new 0 0 42 214" xml:space="preserve">
<g>
	<circle fill="none" stroke="#F8B218" stroke-width="2" stroke-miterlimit="10" cx="23" cy="19.1" r="9.3"/>
	<path fill="none" stroke="#F8B218" stroke-width="2" stroke-miterlimit="10" d="M32.3,8.7v20.7c0,1.5,2.3,3.9,5.5-0.9
		c1.8-2.7,2.8-6,2.8-9.5c0-9.7-7.8-17.5-17.5-17.5c-9.7,0-17.5,7.8-17.5,17.5c0,9.7,7.8,17.5,17.5,17.5"/>
</g>
<g>
	<path fill="none" stroke="#F8B218" stroke-width="2" stroke-miterlimit="10" d="M21.3,114.6c4.5,4.5,11.7,4.5,16.1,0l-8.1-8.1
		c-1.3,1.3-3.5,1.3-4.8,0L13,95.1c-1.3-1.3-1.3-3.5,0-4.8L5,82.2c-4.5,4.5-4.5,11.7,0,16.1L21.3,114.6z"/>
	<path fill="none" stroke="#F8B218" stroke-width="2" stroke-miterlimit="10" d="M5,82.2l2.2-2.2c1.3-1.3,3.5-1.3,4.8,0l3.3,3.3
		c1.3,1.3,1.3,3.5,0,4.8L13,90.3"/>
	<path fill="none" stroke="#F8B218" stroke-width="2" stroke-miterlimit="10" d="M29.3,106.6l2.2-2.2c1.3-1.3,3.5-1.3,4.8,0l3.3,3.3
		c1.3,1.3,1.3,3.4,0,4.8l-2.2,2.2"/>
</g>
<g>
	<path fill="none" stroke="#F8B218" stroke-width="2" stroke-miterlimit="10" d="M23.1,211.6c0,0,12.4-20.6,16-27.8
		c1.1-2.1,1.4-4.5,1.4-7c0-9.7-7.8-17.5-17.5-17.5l0,0c-9.7,0-17.5,7.8-17.5,17.5c0,2.5,0.4,4.9,1.5,7
		C10.7,191,23.1,211.6,23.1,211.6z"/>
	<circle fill="none" stroke="#F8B218" stroke-width="2" stroke-miterlimit="10" cx="23.1" cy="176.8" r="9.1"/>
</g>
</svg>
