<?xml version="1.0" encoding="utf-8"?>
<!-- Generator: Adobe Illustrator 17.1.0, SVG Export Plug-In . SVG Version: 6.00 Build 0)  -->
<!DOCTYPE svg PUBLIC "-//W3C//DTD SVG 1.1//EN" "http://www.w3.org/Graphics/SVG/1.1/DTD/svg11.dtd">
<svg version="1.1" id="Layer_1" xmlns="http://www.w3.org/2000/svg" xmlns:xlink="http://www.w3.org/1999/xlink" x="0px" y="0px"
	 viewBox="0 0 105.5 65" enable-background="new 0 0 105.5 65" xml:space="preserve">
<g>
	<g>
		<path fill="#FFFFFF" d="M97.4,8.1h-8.1h-8.1v8.1v8.1v8.1v16.2h8.1V32.5h8.1h8.1v-8.1v-8.1V8.1H97.4z M97.4,24.4h-8.1v-8.1h8.1
			V24.4z"/>
	</g>
	<g>
		<polygon fill="#FFFFFF" points="32.5,16.2 32.5,8.1 24.4,8.1 24.4,0 16.2,0 16.2,8.1 16.2,16.2 16.2,32.5 16.2,40.6 24.4,40.6 
			32.5,40.6 32.5,32.5 24.4,32.5 24.4,16.2 		"/>
	</g>
	<g>
		<g>
			<rect y="8.1" fill="#FFFFFF" width="8.1" height="8.1"/>
		</g>
		<g>
			<rect y="24.4" fill="#FFFFFF" width="8.1" height="16.2"/>
		</g>
	</g>
	<g>
		<g>
			<rect x="64.9" y="8.1" fill="#FFFFFF" width="8.1" height="8.1"/>
		</g>
		<g>
			<rect x="64.9" y="24.4" fill="#FFFFFF" width="8.1" height="16.2"/>
		</g>
	</g>
	<g>
		<rect x="40.6" y="16.2" fill="#FFFFFF" width="16.2" height="8.1"/>
	</g>
	<g>
		<g>
			<path fill="#FFFFFF" d="M0,62.5v-5.7h0.7v4.7l3.8-4.7h0.7v5.7H4.4v-4.7l-3.8,4.7H0z"/>
		</g>
		<g>
			<path fill="#FFFFFF" d="M11.4,59.9H7.7v2.6H7.1v-5.7h0.7v2.5h3.7v-2.5H12v5.7h-0.7V59.9z"/>
		</g>
		<g>
			<path fill="#FFFFFF" d="M13.2,56.8h5.2v0.7h-2.3v5h-0.7v-5h-2.3V56.8z"/>
		</g>
		<g>
			<path fill="#FFFFFF" d="M24,61.8c-0.5,0.5-1.3,0.8-2.1,0.8c-1.8,0-3-1.2-3-2.9c0-1.6,1-2.9,2.9-2.9c1.5,0,2.6,1,2.6,2.6
				c0,0.2,0,0.4,0,0.5h-4.7c0.1,1.4,1,2.2,2.3,2.2c0.8,0,1.4-0.3,1.8-0.7L24,61.8z M19.6,59.3h4.1c0-1.2-0.8-1.9-2-1.9
				C20.5,57.3,19.7,58.1,19.6,59.3z"/>
		</g>
		<g>
			<path fill="#FFFFFF" d="M29.6,57.5h-2.4l-0.1,1.2c-0.2,3.3-1.2,3.8-2,3.8l-0.1-0.6c0.4,0,1.3-0.3,1.5-3.3l0.1-1.8h3.7v5.7h-0.7
				V57.5z"/>
		</g>
		<g>
			<path fill="#FFFFFF" d="M36.3,57.5h-2.4l-0.1,1.2c-0.2,3.3-1.2,3.8-2,3.8l-0.1-0.6c0.4,0,1.3-0.3,1.5-3.3l0.1-1.8h3.7v5.7h-0.7
				V57.5z"/>
		</g>
		<g>
			<path fill="#FFFFFF" d="M43.6,61.8c-0.5,0.5-1.3,0.8-2.1,0.8c-1.8,0-3-1.2-3-2.9c0-1.6,1-2.9,2.9-2.9c1.5,0,2.6,1,2.6,2.6
				c0,0.2,0,0.4,0,0.5h-4.7c0,1.4,1,2.2,2.3,2.2c0.8,0,1.4-0.3,1.8-0.7L43.6,61.8z M39.2,59.3h4.1c0-1.2-0.8-1.9-2-1.9
				C40.1,57.3,39.3,58.1,39.2,59.3z"/>
		</g>
		<g>
			<path fill="#FFFFFF" d="M45.5,56.8h0.7v5.7h-0.7V56.8z M47.3,59.5l3,3h-0.9l-2.9-2.9l2.7-2.7h0.8L47.3,59.5z"/>
		</g>
		<g>
			<path fill="#FFFFFF" d="M50.8,56.8h5.2v0.7h-2.3v5H53v-5h-2.3V56.8z"/>
		</g>
		<g>
			<path fill="#FFFFFF" d="M57,58.8h2.9v0.6H57V58.8z"/>
		</g>
		<g>
			<path fill="#FFFFFF" d="M66.2,57.4h-3.6v5h-0.7v-5.7h4.9v5.7h-0.7V57.4z"/>
		</g>
		<g>
			<path fill="#FFFFFF" d="M68.8,57.2c0.5-0.3,1.1-0.5,1.8-0.5c1.6,0,2.1,0.8,2.1,2.3v3.5h-0.7v-0.9c-0.4,0.5-0.9,0.9-1.9,0.9
				c-1,0-1.8-0.7-1.8-1.7c0-1.1,0.9-1.8,2.2-1.8c0.5,0,1.1,0.1,1.5,0.4c0-1.3-0.1-2.2-1.5-2.2c-0.7,0-1.1,0.2-1.6,0.4L68.8,57.2z
				 M72.1,61.1v-0.9c-0.4-0.3-0.9-0.5-1.5-0.5c-0.7,0-1.5,0.4-1.5,1.2c0,0.7,0.6,1.1,1.3,1.1C71.3,61.9,71.8,61.5,72.1,61.1z"/>
		</g>
		<g>
			<path fill="#FFFFFF" d="M74.6,56.8h0.7v0.8c0.4-0.5,1.3-0.9,2.1-0.9c1.6,0,2.6,1.2,2.6,2.9c0,1.7-1.1,3-2.9,3
				c-0.7,0-1.3-0.1-1.8-0.5V65h-0.7V56.8z M75.3,58.2v3.3c0.6,0.4,1.2,0.5,1.8,0.5c1.4,0,2.3-1,2.3-2.4c0-1.3-0.8-2.3-2.1-2.3
				C76.4,57.3,75.6,57.7,75.3,58.2z"/>
		</g>
		<g>
			<path fill="#FFFFFF" d="M80.5,56.8h5.2v0.7h-2.3v5h-0.7v-5h-2.3V56.8z"/>
		</g>
		<g>
			<path fill="#FFFFFF" d="M91.2,59.9h-3.7v2.6h-0.7v-5.7h0.7v2.5h3.7v-2.5h0.7v5.7h-0.7V59.9z"/>
		</g>
		<g>
			<path fill="#FFFFFF" d="M98.5,61.8c-0.5,0.5-1.3,0.8-2.1,0.8c-1.8,0-3-1.2-3-2.9c0-1.6,1-2.9,2.9-2.9c1.5,0,2.6,1,2.6,2.6
				c0,0.2,0,0.4,0,0.5h-4.7c0.1,1.4,1,2.2,2.3,2.2c0.8,0,1.4-0.3,1.8-0.7L98.5,61.8z M94.1,59.3h4.1c0-1.2-0.8-1.9-2-1.9
				C94.9,57.3,94.2,58.1,94.1,59.3z"/>
		</g>
		<g>
			<path fill="#FFFFFF" d="M100.4,56.8h0.7v0.8c0.4-0.5,1.3-0.9,2.1-0.9c1.6,0,2.6,1.2,2.6,2.9c0,1.7-1.1,3-2.9,3
				c-0.7,0-1.3-0.1-1.8-0.5V65h-0.7V56.8z M101,58.2v3.3c0.6,0.4,1.2,0.5,1.8,0.5c1.4,0,2.3-1,2.3-2.4c0-1.3-0.8-2.3-2.1-2.3
				C102.1,57.3,101.4,57.7,101,58.2z"/>
		</g>
	</g>
</g>
</svg>
