<?xml version="1.0" encoding="utf-8"?>
<!-- Generator: Adobe Illustrator 17.1.0, SVG Export Plug-In . SVG Version: 6.00 Build 0)  -->
<!DOCTYPE svg PUBLIC "-//W3C//DTD SVG 1.1//EN" "http://www.w3.org/Graphics/SVG/1.1/DTD/svg11.dtd">
<svg version="1.1" id="Layer_1" xmlns="http://www.w3.org/2000/svg" xmlns:xlink="http://www.w3.org/1999/xlink" x="0px" y="0px"
	 viewBox="0 0 80 14" enable-background="new 0 0 80 14" xml:space="preserve">
<g>
	<g>
		<path fill="#FCEE21" d="M7.4,7.1c0,4,2.4,6.7,5.9,6.7c2.9,0,6-2.2,6-7c0-4-2.4-6.7-5.9-6.7C9.9,0.1,7.4,3,7.4,7.1z M9.8,7.1
			c0-2.3,1.1-4.7,3.6-4.7C16,2.4,17,5.1,17,6.9c0,2.3-1.1,4.7-3.6,4.7C11.1,11.6,9.8,9.3,9.8,7.1z"/>
	</g>
	<path fill="#FFFFFF" d="M0.2,1.2C0.9,1.1,1.7,1,2.7,1c1.4,0,2.5,0.4,3.1,1c0.6,0.5,0.9,1.3,0.9,2.3c0,1-0.3,1.8-0.8,2.3
		C5.2,7.5,3.9,8,2.4,8C1.9,8,1.4,8,1,7.9v5H0.2V1.2z M1,7.1c0.4,0.1,0.9,0.2,1.5,0.2c2.1,0,3.4-1,3.4-2.9c0-1.9-1.4-2.7-3.2-2.7
		C1.9,1.7,1.3,1.8,1,1.9V7.1z"/>
	<path fill="#F69321" d="M18.6,6.9c0,4.2-2.5,6.2-5.3,6.2c-2.9,0-5.1-2.3-5.1-6c0-3.9,2.3-6.2,5.3-6.2C16.5,0.9,18.6,3.2,18.6,6.9z
		 M9.1,7.1c0,2.7,1.5,5.3,4.3,5.3c2.8,0,4.4-2.5,4.4-5.5c0-2.5-1.4-5.3-4.3-5.3C10.4,1.6,9.1,4.3,9.1,7.1z"/>
	<path fill="#FFFFFF" d="M20.7,1.1h0.8v11.1h5.3v0.7h-6.1V1.1z"/>
	<path fill="#FFFFFF" d="M29.8,12.9V7.8L26,1.1h0.9l1.9,3.5c0.5,0.9,0.9,1.7,1.3,2.5h0c0.4-0.8,0.8-1.6,1.4-2.6l2-3.5h0.9l-4,6.7
		v5.1H29.8z"/>
	<path fill="#FFFFFF" d="M35.8,1.3C36.6,1.1,37.6,1,39.1,1c1.6,0,2.7,0.3,3.5,1c0.7,0.6,1.2,1.5,1.2,2.6c0,1.1-0.3,2-1,2.7
		c-0.9,0.9-2.2,1.3-3.7,1.3c-0.4,0-0.8,0-1-0.1v4.4h-2.1V1.3z M37.9,6.8c0.3,0.1,0.6,0.1,1,0.1c1.6,0,2.6-0.8,2.6-2.2
		c0-1.3-0.9-2-2.4-2c-0.6,0-1,0.1-1.2,0.1V6.8z"/>
	<path fill="#FFFFFF" d="M45.6,1.3c0.8-0.1,2-0.2,3.3-0.2c1.7,0,2.9,0.3,3.6,0.9c0.6,0.5,1,1.4,1,2.4c0,1.5-1,2.6-2.1,3v0.1
		c0.8,0.3,1.3,1.1,1.6,2.3c0.4,1.5,0.7,2.8,0.9,3.3h-2.2c-0.2-0.3-0.5-1.3-0.8-2.8c-0.3-1.5-0.9-2-2.1-2.1h-1.1v4.9h-2.1V1.3z
		 M47.7,6.5H49c1.5,0,2.4-0.8,2.4-1.9c0-1.3-0.9-1.9-2.3-1.9c-0.7,0-1.1,0.1-1.3,0.1V6.5z"/>
	<path fill="#FFFFFF" d="M57.7,1.1v11.8h-2.2V1.1H57.7z"/>
	<path fill="#FFFFFF" d="M60.2,12.9V1.1h2.5l3,5.1c0.8,1.3,1.5,2.7,2,4h0c-0.1-1.6-0.2-3.1-0.2-4.9V1.1h2v11.8h-2.2l-3.1-5.2
		c-0.8-1.3-1.5-2.7-2.1-4.1l-0.1,0c0.1,1.5,0.1,3.1,0.1,5v4.2H60.2z"/>
	<path fill="#FFFFFF" d="M74.3,1.1h2.2v10h3.4v1.8h-8.9v-1.8h3.4V1.1z"/>
	<path fill="#E90E8B" d="M9.1,7.1c0,2.7,1.5,5.3,4.3,5.3c2.8,0,4.4-2.5,4.4-5.5c0-2.5-1.4-5.3-4.3-5.3C10.4,1.6,9.1,4.3,9.1,7.1z"/>
	<g>
		<path fill="#BC1B8B" d="M9.8,7.1c0,2.3,1.2,4.5,3.6,4.5c2.5,0,3.6-2.4,3.6-4.7c0-1.8-0.9-4.5-3.5-4.5C11,2.4,9.8,4.7,9.8,7.1z"/>
	</g>
	<g>
		<g>
			<path fill="#0956A4" d="M10.6,7.1c0,1.9,1,3.8,2.8,3.8c2.1,0,2.8-2.1,2.8-3.9c0-1-0.5-3.8-2.8-3.8C11.4,3.2,10.6,5.3,10.6,7.1z"
				/>
		</g>
	</g>
	<g>
		<g>
			<g>
				<path fill="#29ABE2" d="M11.4,7.1c0,1.2,0.5,3,2,3c1.9,0,2-2.6,2-3.1c0,0-0.1-3-2-3C11.5,3.9,11.4,6.6,11.4,7.1z"/>
			</g>
		</g>
	</g>
	<g>
		<g>
			<g>
				<g>
					<path fill="#8CC541" d="M12.2,7.1c0,0.7,0.3,2.2,1.2,2.2c1.2,0,1.3-2,1.3-2.4c0,0-0.1-2.2-1.2-2.2C12.2,4.7,12.2,6.7,12.2,7.1z
						"/>
				</g>
			</g>
		</g>
	</g>
</g>
</svg>
