<?xml version="1.0" encoding="UTF-8"?>
<!DOCTYPE svg PUBLIC "-//W3C//DTD SVG 1.1//EN" "http://www.w3.org/Graphics/SVG/1.1/DTD/svg11.dtd">
<!-- Creator: CorelDRAW X6 -->
<svg xmlns="http://www.w3.org/2000/svg" xml:space="preserve" width="30mm" height="20mm" version="1.1" style="shape-rendering:geometricPrecision; text-rendering:geometricPrecision; image-rendering:optimizeQuality; fill-rule:evenodd; clip-rule:evenodd"
viewBox="0 0 3000 2000"
 xmlns:xlink="http://www.w3.org/1999/xlink">
 <defs>
  <style type="text/css">
   <![CDATA[
    .fil0 {fill:#F3B805;fill-rule:nonzero}
   ]]>
  </style>
 </defs>
 <g id="Слой_x0020_1">
  <metadata id="CorelCorpID_0Corel-Layer"/>
  <g id="_726766656">
   <g>
    <path class="fil0" d="M500 900l2000 0 0 200 -2000 0 -100 -100 100 -100zm0 200l-100 0 0 -100 100 100zm100 -1100l0 1000 -200 0 0 -1000 100 -100 100 100zm-200 0l0 -100 100 0 -100 100zm2100 100l-2000 0 0 -200 2000 0 100 100 -100 100zm0 -200l100 0 0 100 -100 -100zm-100 1100l0 -1000 200 0 0 1000 -100 100 -100 -100zm200 0l0 100 -100 0 100 -100z"/>
   </g>
   <g>
    <path class="fil0" d="M0 400l500 0 0 200 -500 0 -100 -100 100 -100zm-100 100l0 -100 100 0 -100 100zm0 1500l0 -1500 200 0 0 1500 -100 100 -100 -100zm100 100l-100 0 0 -100 100 100zm3000 0l-3000 0 0 -200 3000 0 100 100 -100 100zm100 -100l0 100 -100 0 100 -100zm0 -1500l0 1500 -200 0 0 -1500 100 -100 100 100zm-100 -100l100 0 0 100 -100 -100zm-500 0l500 0 0 200 -500 0 0 -200z"/>
   </g>
   <g>
    <polygon class="fil0" points="2500,1600 500,1600 500,1400 2500,1400 "/>
   </g>
  </g>
 </g>
</svg>
