<?xml version="1.0" encoding="utf-8"?>
<!-- Generator: Adobe Illustrator 17.1.0, SVG Export Plug-In . SVG Version: 6.00 Build 0)  -->
<!DOCTYPE svg PUBLIC "-//W3C//DTD SVG 1.1//EN" "http://www.w3.org/Graphics/SVG/1.1/DTD/svg11.dtd">
<svg version="1.1" id="Layer_1" xmlns="http://www.w3.org/2000/svg" xmlns:xlink="http://www.w3.org/1999/xlink" x="0px" y="0px"
	 viewBox="0 0 42 42" enable-background="new 0 0 42 42" xml:space="preserve">
<g>
	<path fill="none" stroke="#F8B218" stroke-width="2" stroke-miterlimit="10" d="M21.3,37.3c4.5,4.5,11.7,4.5,16.1,0l-8.1-8.1
		c-1.3,1.3-3.5,1.3-4.8,0L13,17.7c-1.3-1.3-1.3-3.5,0-4.8L5,4.9C0.5,9.3,0.5,16.6,5,21L21.3,37.3z"/>
	<path fill="none" stroke="#F8B218" stroke-width="2" stroke-miterlimit="10" d="M5,4.9l2.2-2.2c1.3-1.3,3.5-1.3,4.8,0L15.2,6
		c1.3,1.3,1.3,3.5,0,4.8L13,13"/>
	<path fill="none" stroke="#F8B218" stroke-width="2" stroke-miterlimit="10" d="M29.3,29.2l2.2-2.2c1.3-1.3,3.5-1.3,4.8,0l3.3,3.3
		c1.3,1.3,1.3,3.4,0,4.8l-2.2,2.2"/>
</g>
</svg>
