<?xml version="1.0" encoding="utf-8"?>
<!-- Generator: Adobe Illustrator 17.1.0, SVG Export Plug-In . SVG Version: 6.00 Build 0)  -->
<!DOCTYPE svg PUBLIC "-//W3C//DTD SVG 1.1//EN" "http://www.w3.org/Graphics/SVG/1.1/DTD/svg11.dtd">
<svg version="1.1" id="Layer_1" xmlns="http://www.w3.org/2000/svg" xmlns:xlink="http://www.w3.org/1999/xlink" x="0px" y="0px"
	 viewBox="0 0 25 25" enable-background="new 0 0 25 25" xml:space="preserve">
<g>
	<g>
		<path fill="none" stroke="#6E6F71" stroke-miterlimit="10" d="M12.6,21.9c2.6,2.6,6.9,2.6,9.5,0l-4.8-4.8c-0.8,0.8-2,0.8-2.8,0
			l-6.8-6.8C7,9.6,7,8.3,7.8,7.6L3.1,2.8c-2.6,2.6-2.6,6.9,0,9.5L12.6,21.9z"/>
		<path fill="none" stroke="#6E6F71" stroke-miterlimit="10" d="M3.1,2.8l1.3-1.3c0.8-0.8,2-0.8,2.8,0l1.9,1.9c0.8,0.8,0.8,2,0,2.8
			L7.8,7.6"/>
		<path fill="none" stroke="#6E6F71" stroke-miterlimit="10" d="M17.4,17.1l1.3-1.3c0.8-0.8,2-0.8,2.8,0l2,1.9c0.8,0.8,0.8,2,0,2.8
			l-1.3,1.3"/>
	</g>
</g>
</svg>
