<?xml version="1.0" encoding="utf-8"?>
<!-- Generator: Adobe Illustrator 17.1.0, SVG Export Plug-In . SVG Version: 6.00 Build 0)  -->
<!DOCTYPE svg PUBLIC "-//W3C//DTD SVG 1.1//EN" "http://www.w3.org/Graphics/SVG/1.1/DTD/svg11.dtd">
<svg version="1.1" id="Layer_1" xmlns="http://www.w3.org/2000/svg" xmlns:xlink="http://www.w3.org/1999/xlink" x="0px" y="0px"
	 viewBox="0 0 19.1 19.1" enable-background="new 0 0 19.1 19.1" xml:space="preserve">
<g>
	<rect x="0" y="0" fill="#6E6F71" width="19.1" height="19.1"/>
	<path fill="#F8B218" d="M5.7,4.6c0.9,0,1.9-0.1,3.2-0.1c2.7,0,4.1,0.8,4.1,2.6c0,1.1-0.7,2.1-2,2.3v0c1.7,0.3,2.4,1.1,2.4,2.4
		c0,1.8-1.5,2.8-4.5,2.8c-1.2,0-2.4-0.1-3.3-0.1V4.6z M6.9,5.6V9h2.6c1.4,0,2.3-0.7,2.3-1.8c0-1.3-1.3-1.7-2.8-1.7
		C8.1,5.6,7.4,5.6,6.9,5.6z M6.9,10v3.5c0.6,0,1.3,0,2.2,0c2,0,3.1-0.6,3.1-1.8c0-1.2-1-1.7-3-1.7H6.9z"/>
</g>
</svg>
