<?xml version="1.0" encoding="UTF-8"?>
<!DOCTYPE svg PUBLIC "-//W3C//DTD SVG 1.1//EN" "http://www.w3.org/Graphics/SVG/1.1/DTD/svg11.dtd">
<!-- Creator: CorelDRAW -->
<svg xmlns="http://www.w3.org/2000/svg" xml:space="preserve" width="100mm" height="100mm" style="shape-rendering:geometricPrecision; text-rendering:geometricPrecision; image-rendering:optimizeQuality; fill-rule:evenodd; clip-rule:evenodd"
viewBox="0 0 100 100"
 xmlns:xlink="http://www.w3.org/1999/xlink">
 <defs>
  <style type="text/css">
   <![CDATA[
    .fil0 {fill:#CCCCCC}
   ]]>
  </style>
 </defs>
 <g id="Слой_x0020_1">
  <metadata id="CorelCorpID_0Corel-Layer"/>
  <path class="fil0" d="M100 100.001l-100 0 0 -100.002 100 0 0 100.002zm-64.1584 -47.9121l0 18.4525c3.3684,0.1169 6.9646,0.2339 11.7208,0.2339 10.5617,0 16.2473,-3.0238 16.2473,-9.6345 0,-6.1482 -4.9901,-9.0519 -15.4339,-9.0519l-12.5342 0zm0 -22.6283l0 17.6402 13.8163 0c7.5359,0 12.1813,-3.5992 12.1813,-9.1637 0,-6.9697 -6.6117,-8.7012 -14.5005,-8.7012 -4.9921,0 -8.5903,0.1149 -11.4971,0.2247zm-6.0282 -5.5614c4.5214,0 9.7484,-0.3528 16.8248,-0.3528 14.1538,0 21.582,3.9479 21.582,13.4624 0,5.6886 -3.71,10.9044 -10.5668,11.9445l0 0.2359c8.9421,1.3898 12.5342,5.6855 12.5342,12.5301 0,9.5155 -7.7719,14.7344 -23.3186,14.7344 -6.4949,0 -12.2993,-0.3437 -17.0556,-0.3437l0 -52.2108z"/>
 </g>
</svg>
